<svg width="15" height="15" viewBox="0 0 15 15" fill="none" xmlns="http://www.w3.org/2000/svg">
<g id="croix" opacity="0.5">
<path id="Vector" d="M0.311448 1.85439C0.736545 2.27929 1.16164 2.70419 1.58674 3.12908C2.6061 4.14796 3.62547 5.16684 4.64917 6.19006C5.88976 7.43006 7.13035 8.67006 8.37094 9.91006C9.43368 10.9723 10.4964 12.0345 11.5635 13.1011C12.084 13.6214 12.5959 14.159 13.1294 14.6663C13.1381 14.675 13.1424 14.6793 13.1511 14.688C13.5545 15.0912 14.2876 15.1172 14.6867 14.688C15.0857 14.2544 15.1161 13.5824 14.6867 13.1531C14.2616 12.7282 13.8365 12.3034 13.4114 11.8785C12.392 10.8596 11.3726 9.84069 10.3489 8.81748C9.10835 7.57747 7.86776 6.33747 6.62717 5.09747C5.56443 4.03524 4.50169 2.973 3.43461 1.90642C2.91408 1.38614 2.40223 0.84852 1.86869 0.341247C1.86001 0.332575 1.85568 0.32824 1.847 0.319568C1.44359 -0.0836486 0.710518 -0.109663 0.311448 0.319568C-0.0832851 0.753135 -0.113649 1.42516 0.311448 1.85439Z" fill="#8F8F8F"/>
<path id="Vector_2" d="M1.84795 14.679C2.27304 14.2541 2.69814 13.8293 3.12324 13.4044C4.1426 12.3855 5.16197 11.3666 6.18567 10.3434C7.42626 9.10338 8.66685 7.86338 9.90744 6.62338C10.9702 5.56114 12.0329 4.4989 13.1 3.43233C13.6205 2.91205 14.1584 2.40044 14.6659 1.86715C14.6746 1.85848 14.6789 1.85414 14.6876 1.84547C15.091 1.44226 15.117 0.709528 14.6876 0.310646C14.2538 -0.088235 13.5815 -0.118585 13.1521 0.310646C12.727 0.735542 12.3019 1.16044 11.8768 1.58533C10.8574 2.60421 9.83803 3.6231 8.81433 4.64631C7.57374 5.88631 6.33315 7.12631 5.09256 8.36631C4.02982 9.42855 2.96708 10.4908 1.9 11.5574C1.37947 12.0776 0.841595 12.5893 0.334081 13.1225C0.325405 13.1312 0.321068 13.1355 0.312392 13.1442C-0.091016 13.5474 -0.117042 14.2802 0.312392 14.679C0.746165 15.0779 1.41851 15.1083 1.84795 14.679Z" fill="#8F8F8F"/>
</g>
</svg>
