<svg width="21" height="21" viewBox="0 0 21 21" fill="none" xmlns="http://www.w3.org/2000/svg">
<path d="M6.1514 0.0734347C5.03419 0.126145 4.27125 0.304436 3.60428 0.566516C2.91401 0.835527 2.32894 1.19652 1.74681 1.78074C1.16469 2.36496 0.806215 2.95044 0.539092 3.64177C0.28058 4.3102 0.105438 5.07376 0.0560876 6.1916C0.0067371 7.30943 -0.00418302 7.66874 0.00127704 10.5201C0.00673709 13.3715 0.0193372 13.7289 0.0735178 14.8491C0.126858 15.9661 0.30452 16.7288 0.566603 17.396C0.836035 18.0862 1.19661 18.6711 1.78104 19.2534C2.36548 19.8358 2.95055 20.1934 3.64355 20.4609C4.31136 20.719 5.07514 20.895 6.19277 20.9439C7.3104 20.9929 7.67014 21.0042 10.5207 20.9987C13.3713 20.9933 13.7302 20.9807 14.8501 20.9276C15.97 20.8744 16.7288 20.6955 17.3962 20.4347C18.0864 20.1646 18.6717 19.8047 19.2536 19.22C19.8356 18.6354 20.1938 18.0495 20.4607 17.3578C20.7195 16.69 20.8952 15.9262 20.9437 14.8094C20.9927 13.6886 21.0042 13.3308 20.9988 10.4798C20.9933 7.62884 20.9805 7.27142 20.9274 6.1517C20.8742 5.03197 20.6964 4.27156 20.4345 3.60397C20.1646 2.91369 19.8045 2.32926 19.2203 1.74651C18.636 1.16376 18.0497 0.805707 17.3582 0.539426C16.6899 0.280915 15.9266 0.104725 14.8089 0.0564247C13.6913 0.00812452 13.3316 -0.00426552 10.48 0.0011945C7.62834 0.00665451 7.27134 0.0188346 6.1514 0.0734347ZM6.27404 19.055C5.25028 19.0105 4.6944 18.8404 4.32396 18.698C3.8334 18.509 3.48395 18.2805 3.11477 17.9149C2.74558 17.5493 2.51878 17.1986 2.32726 16.7091C2.18341 16.3386 2.01016 15.7834 1.96228 14.7596C1.9102 13.6531 1.89928 13.3209 1.89319 10.5176C1.8871 7.71431 1.89781 7.38251 1.94632 6.2756C1.99 5.25268 2.16115 4.69618 2.30332 4.32595C2.49232 3.83476 2.71996 3.48595 3.08642 3.11698C3.45287 2.748 3.80253 2.52078 4.29246 2.32926C4.66248 2.18478 5.21773 2.013 6.24107 1.96428C7.34841 1.91178 7.68021 1.90128 10.4831 1.89519C13.286 1.8891 13.6187 1.8996 14.7264 1.94832C15.7493 1.99284 16.3061 2.16231 16.6759 2.30532C17.1666 2.49432 17.5159 2.72133 17.8848 3.08842C18.2538 3.4555 18.4813 3.80389 18.6728 4.29487C18.8175 4.66384 18.9892 5.21887 19.0375 6.24284C19.0903 7.35017 19.1022 7.68218 19.1073 10.4849C19.1123 13.2875 19.1024 13.6204 19.0539 14.7269C19.0092 15.7506 18.8395 16.3067 18.6969 16.6776C18.5079 17.1679 18.2801 17.5176 17.9134 17.8863C17.5467 18.2551 17.1975 18.4823 16.7074 18.6738C16.3378 18.8181 15.7819 18.9903 14.7594 19.039C13.652 19.0911 13.3202 19.102 10.5163 19.1081C7.71234 19.1142 7.38159 19.1029 6.27425 19.055M14.8339 4.88812C14.8344 5.13734 14.9087 5.38085 15.0475 5.58783C15.1863 5.79481 15.3834 5.95598 15.6138 6.05095C15.8442 6.14592 16.0976 6.17043 16.342 6.12137C16.5863 6.07231 16.8106 5.95189 16.9865 5.77534C17.1624 5.59879 17.282 5.37404 17.3302 5.12952C17.3784 4.88499 17.3529 4.63168 17.2571 4.40161C17.1613 4.17154 16.9994 3.97505 16.7919 3.837C16.5844 3.69894 16.3407 3.62552 16.0914 3.62602C15.7573 3.62668 15.4372 3.76002 15.2014 3.9967C14.9655 4.23338 14.8334 4.55402 14.8339 4.88812ZM5.10874 10.5105C5.11462 13.4883 7.533 15.8968 10.5102 15.8911C13.4874 15.8854 15.8976 13.4673 15.8919 10.4895C15.8863 7.51166 13.4672 5.10253 10.4896 5.10841C7.512 5.11429 5.10307 7.53308 5.10874 10.5105ZM7.00002 10.5067C6.99865 9.81444 7.20259 9.13733 7.58604 8.56099C7.9695 7.98464 8.51525 7.53495 9.15429 7.26877C9.79332 7.00259 10.4969 6.93189 11.1762 7.06559C11.8554 7.1993 12.4797 7.53142 12.9702 8.01994C13.4606 8.50846 13.7952 9.13146 13.9316 9.81014C14.068 10.4888 14.0001 11.1927 13.7364 11.8328C13.4728 12.4729 13.0253 13.0204 12.4504 13.4061C11.8756 13.7919 11.1993 13.9985 10.5071 13.9998C10.0474 14.0008 9.59205 13.9112 9.16703 13.7362C8.742 13.5611 8.35562 13.3041 8.02995 12.9797C7.70428 12.6553 7.4457 12.27 7.26899 11.8457C7.09227 11.4213 7.00087 10.9663 7.00002 10.5067Z" fill="#61D18A"/>
</svg>
