<svg width="30" height="30" viewBox="0 0 30 31" fill="none" xmlns="http://www.w3.org/2000/svg">
<g id="user">
<path id="Vector" d="M25 27.168V24.668C25 23.3419 24.4732 22.0701 23.5355 21.1324C22.5979 20.1948 21.3261 19.668 20 19.668H10C8.67392 19.668 7.40215 20.1948 6.46447 21.1324C5.52678 22.0701 5 23.3419 5 24.668V27.168" stroke="black" stroke-linecap="round" stroke-linejoin="round"/>
<path id="Vector_2" d="M15 14.668C17.7614 14.668 20 12.4294 20 9.66797C20 6.90654 17.7614 4.66797 15 4.66797C12.2386 4.66797 10 6.90654 10 9.66797C10 12.4294 12.2386 14.668 15 14.668Z" stroke="black" stroke-linecap="round" stroke-linejoin="round"/>
<rect y="0.917969" width="30" height="30"/>
</g>
</svg>
