<svg width="108" height="25" viewBox="0 0 108 25" fill="none" xmlns="http://www.w3.org/2000/svg">
<rect width="108" height="25" rx="12.5" fill="#A0E4BA"/>
<path d="M10.9832 7.2H17.6892V8.53C17.1712 9.118 16.7092 9.72 16.2892 10.336C15.8692 10.952 15.4912 11.61 15.1832 12.31C14.8752 13.01 14.6232 13.738 14.4272 14.508C14.2312 15.292 14.0912 16.118 14.0352 17H12.2852C12.3412 16.23 12.4672 15.46 12.6772 14.704C12.8872 13.948 13.1532 13.22 13.4892 12.506C13.8252 11.806 14.2032 11.12 14.6512 10.462C15.0852 9.818 15.5612 9.202 16.0652 8.628H10.9832V7.2ZM23.0089 9.762H24.5209V10.77H24.5629C24.6749 10.602 24.8149 10.434 24.9549 10.28C25.0949 10.14 25.2489 10.014 25.4169 9.902C25.5849 9.804 25.7949 9.72 26.0189 9.664C26.2429 9.608 26.4949 9.566 26.7889 9.566C27.2229 9.566 27.6289 9.664 28.0069 9.86C28.3849 10.056 28.6509 10.364 28.8189 10.77C29.0849 10.406 29.3929 10.112 29.7569 9.888C30.1069 9.678 30.5549 9.566 31.0869 9.566C31.8429 9.566 32.4449 9.762 32.8649 10.126C33.2849 10.504 33.5089 11.134 33.5089 12.002V17H31.9129V12.772C31.9129 12.492 31.8989 12.226 31.8849 11.988C31.8569 11.75 31.8009 11.54 31.7169 11.372C31.6329 11.204 31.4929 11.064 31.3249 10.966C31.1429 10.882 30.9049 10.826 30.5969 10.826C30.0509 10.826 29.6589 10.994 29.4209 11.33C29.1689 11.666 29.0569 12.142 29.0569 12.758V17H27.4609V12.352C27.4609 11.848 27.3629 11.47 27.1809 11.218C26.9989 10.966 26.6629 10.826 26.1869 10.826C25.9769 10.826 25.7809 10.868 25.5849 10.952C25.3889 11.036 25.2209 11.162 25.0809 11.316C24.9409 11.484 24.8149 11.68 24.7309 11.904C24.6469 12.142 24.6049 12.408 24.6049 12.702V17H23.0089V9.762ZM35.2326 7.004H36.8286V8.516H35.2326V7.004ZM35.2326 9.762H36.8286V17H35.2326V9.762ZM38.5675 9.762H40.0795V10.826L40.1075 10.854C40.3455 10.462 40.6675 10.14 41.0595 9.916C41.4515 9.692 41.8855 9.566 42.3615 9.566C43.1455 9.566 43.7755 9.776 44.2375 10.182C44.6855 10.602 44.9235 11.218 44.9235 12.03V17H43.3275V12.45C43.2995 11.89 43.1875 11.47 42.9635 11.218C42.7395 10.966 42.3895 10.826 41.9135 10.826C41.6335 10.826 41.3955 10.882 41.1855 10.98C40.9615 11.078 40.7795 11.218 40.6395 11.386C40.4855 11.554 40.3735 11.764 40.2895 11.988C40.2055 12.226 40.1635 12.478 40.1635 12.73V17H38.5675V9.762ZM52.9626 17H51.3946V15.992H51.3666C51.1706 16.356 50.8766 16.65 50.4846 16.874C50.0926 17.098 49.7006 17.196 49.3086 17.196C48.3566 17.196 47.6566 16.972 47.2366 16.496C46.8166 16.02 46.6066 15.306 46.6066 14.354V9.762H48.2026V14.2C48.2026 14.844 48.3146 15.292 48.5666 15.544C48.8046 15.81 49.1406 15.936 49.5886 15.936C49.9246 15.936 50.2046 15.894 50.4286 15.782C50.6526 15.684 50.8346 15.544 50.9746 15.376C51.1146 15.208 51.2126 14.998 51.2686 14.746C51.3246 14.508 51.3666 14.242 51.3666 13.962V9.762H52.9626V17ZM53.9177 9.762H55.1217V7.592H56.7177V9.762H58.1597V10.952H56.7177V14.816C56.7177 14.984 56.7177 15.138 56.7317 15.25C56.7457 15.376 56.7737 15.474 56.8297 15.558C56.8857 15.642 56.9557 15.712 57.0677 15.754C57.1657 15.796 57.3057 15.81 57.4877 15.81C57.5997 15.81 57.7117 15.81 57.8237 15.81C57.9357 15.81 58.0477 15.782 58.1597 15.754V16.986C57.9777 17.014 57.8097 17.028 57.6417 17.042C57.4737 17.07 57.2917 17.07 57.1237 17.07C56.7037 17.07 56.3537 17.042 56.1017 16.958C55.8497 16.874 55.6397 16.762 55.4997 16.608C55.3597 16.454 55.2617 16.258 55.2057 16.02C55.1497 15.796 55.1217 15.53 55.1217 15.222V10.952H53.9177V9.762ZM64.2778 12.744C64.2498 12.492 64.1938 12.254 64.1098 12.016C64.0258 11.792 63.8998 11.582 63.7458 11.414C63.5918 11.246 63.4098 11.106 63.1858 10.994C62.9618 10.882 62.7238 10.826 62.4578 10.826C62.1778 10.826 61.9118 10.882 61.6878 10.98C61.4638 11.078 61.2678 11.218 61.0998 11.386C60.9318 11.554 60.8058 11.764 60.7078 11.988C60.6098 12.226 60.5538 12.478 60.5538 12.744H64.2778ZM60.5538 13.794C60.5538 14.074 60.5818 14.354 60.6658 14.606C60.7498 14.872 60.8618 15.096 61.0298 15.292C61.1838 15.488 61.3798 15.656 61.6318 15.768C61.8698 15.88 62.1638 15.936 62.4998 15.936C62.9618 15.936 63.3398 15.838 63.6198 15.642C63.8998 15.446 64.1238 15.138 64.2638 14.732H65.7758C65.6918 15.124 65.5378 15.474 65.3418 15.782C65.1318 16.09 64.8798 16.356 64.5998 16.566C64.3058 16.776 63.9838 16.93 63.6198 17.042C63.2558 17.154 62.8918 17.196 62.4998 17.196C61.9258 17.196 61.4218 17.112 60.9878 16.916C60.5398 16.734 60.1758 16.468 59.8678 16.132C59.5598 15.796 59.3358 15.404 59.1818 14.928C59.0278 14.466 58.9578 13.948 58.9578 13.388C58.9578 12.884 59.0278 12.394 59.1958 11.932C59.3638 11.47 59.5878 11.064 59.8958 10.714C60.2038 10.364 60.5678 10.084 61.0018 9.874C61.4218 9.678 61.9118 9.566 62.4578 9.566C63.0178 9.566 63.5358 9.692 63.9838 9.93C64.4318 10.168 64.8098 10.476 65.1178 10.868C65.4118 11.26 65.6218 11.722 65.7618 12.226C65.9018 12.73 65.9298 13.262 65.8738 13.794H60.5538ZM68.2911 14.676C68.3331 15.152 68.5151 15.474 68.8231 15.656C69.1311 15.852 69.4951 15.936 69.9291 15.936C70.0691 15.936 70.2371 15.936 70.4331 15.908C70.6291 15.88 70.8111 15.838 70.9791 15.768C71.1471 15.712 71.2731 15.614 71.3851 15.488C71.4971 15.362 71.5391 15.194 71.5391 14.984C71.5251 14.788 71.4551 14.62 71.3151 14.48C71.1751 14.354 70.9931 14.256 70.7691 14.172C70.5451 14.088 70.3071 14.018 70.0271 13.962C69.7471 13.906 69.4531 13.85 69.1731 13.78C68.8651 13.724 68.5851 13.64 68.3051 13.542C68.0251 13.458 67.7871 13.332 67.5631 13.164C67.3391 13.01 67.1711 12.814 67.0451 12.562C66.9051 12.31 66.8491 12.002 66.8491 11.638C66.8491 11.246 66.9331 10.924 67.1291 10.658C67.3251 10.392 67.5631 10.182 67.8571 10.014C68.1511 9.846 68.4731 9.734 68.8371 9.664C69.2011 9.608 69.5371 9.566 69.8731 9.566C70.2371 9.566 70.6011 9.608 70.9371 9.692C71.2731 9.776 71.5811 9.902 71.8611 10.07C72.1411 10.252 72.3651 10.49 72.5471 10.77C72.7291 11.05 72.8411 11.4 72.8971 11.792H71.2311C71.1471 11.414 70.9791 11.162 70.6991 11.022C70.4191 10.896 70.1111 10.826 69.7611 10.826C69.6491 10.826 69.5091 10.84 69.3551 10.854C69.2011 10.882 69.0611 10.91 68.9211 10.966C68.7811 11.022 68.6691 11.092 68.5851 11.19C68.4871 11.288 68.4451 11.414 68.4451 11.568C68.4451 11.764 68.5011 11.932 68.6411 12.044C68.7811 12.17 68.9491 12.268 69.1731 12.352C69.3971 12.436 69.6491 12.492 69.9291 12.548C70.2091 12.604 70.4891 12.674 70.7971 12.73C71.0771 12.8 71.3711 12.884 71.6511 12.968C71.9311 13.066 72.1691 13.192 72.3931 13.346C72.6171 13.514 72.7851 13.71 72.9251 13.948C73.0651 14.2 73.1351 14.494 73.1351 14.844C73.1351 15.278 73.0371 15.642 72.8411 15.936C72.6451 16.244 72.3791 16.482 72.0711 16.664C71.7631 16.86 71.4131 16.986 71.0351 17.07C70.6431 17.154 70.2651 17.196 69.9011 17.196C69.4391 17.196 69.0191 17.154 68.6271 17.042C68.2351 16.944 67.8991 16.79 67.6191 16.58C67.3391 16.37 67.1151 16.104 66.9471 15.796C66.7791 15.488 66.6951 15.11 66.6951 14.676H68.2911Z" fill="black"/>
<path d="M91 18.635C94.866 18.635 98 15.5431 98 11.7291C98 7.91511 94.866 4.82324 91 4.82324C87.134 4.82324 84 7.91511 84 11.7291C84 15.5431 87.134 18.635 91 18.635Z" stroke="black" stroke-width="2" stroke-linecap="round" stroke-linejoin="round"/>
<path d="M91 7.7832V12.2227L94 13.7025" stroke="black" stroke-width="2" stroke-linecap="round" stroke-linejoin="round"/>
</svg>
