<svg width="90" height="32" viewBox="0 0 90 32" fill="none" xmlns="http://www.w3.org/2000/svg">
<path d="M27.1732 1.32687H24.2759V9.62977H27.1732V1.32687Z" fill="#61D18A"/>
<path d="M33.1269 1.32687H30.2295V9.62977H33.1269V1.32687Z" fill="#61D18A"/>
<path d="M50.1893 12.4613H47.292V20.7642H50.1893V12.4613Z" fill="#61D18A"/>
<path d="M44.4594 12.4613H41.562V20.7642H44.4594V12.4613Z" fill="#61D18A"/>
<path d="M21.2162 12.4613H18.3188V20.7642H21.2162V12.4613Z" fill="#61D18A"/>
<path d="M15.391 12.4613H12.4937V20.7642H15.391V12.4613Z" fill="#61D18A"/>
<path d="M9.41787 23.5478H6.52051V31.8507H9.41787V23.5478Z" fill="#61D18A"/>
<path d="M3.54433 23.5478H0.646973V31.8507H3.54433V23.5478Z" fill="#61D18A"/>
<path d="M0.629395 12.5066L0.629395 15.2445L9.41605 15.2445L9.41605 12.5066L0.629395 12.5066Z" fill="#61D18A"/>
<path d="M0.630371 18.0268L0.630371 20.7646L9.41703 20.7646L9.41703 18.0268L0.630371 18.0268Z" fill="#61D18A"/>
<path d="M24.2744 23.571L24.2744 26.3088L33.0611 26.3088L33.0611 23.571L24.2744 23.571Z" fill="#61D18A"/>
<path d="M24.2754 29.0911L24.2754 31.829L33.062 31.829L33.062 29.0911L24.2754 29.0911Z" fill="#61D18A"/>
<path d="M48.2262 15.3792H43.3809V17.5988H48.2262V15.3792Z" fill="#61D18A"/>
<path d="M60.7762 12.4613H53.7598V14.4093H60.7762V12.4613Z" fill="#61D18A"/>
<path d="M60.7762 15.5619H53.7598V17.492H60.7762V15.5619Z" fill="#61D18A"/>
<path d="M60.7762 18.7567H53.7598V20.7654H60.7762V18.7567Z" fill="#61D18A"/>
<path d="M56.4302 12.4613H53.7598V20.7642H56.4302V12.4613Z" fill="#61D18A"/>
<path d="M71.8856 12.4613H63.4658V14.5916H71.8856V12.4613Z" fill="#61D18A"/>
<path d="M69.0031 13.7828H66.397V20.7632H69.0031V13.7828Z" fill="#61D18A"/>
<path d="M77.6464 12.4613H74.9419V20.7964H77.6464V12.4613Z" fill="#61D18A"/>
<path d="M5.02311 0.732422C2.25056 0.732422 0 2.8555 0 5.47897C0 8.10245 2.24678 10.2255 5.02311 10.2255C7.79943 10.2255 10.0462 8.10245 10.0462 5.47897C10.0462 2.8555 7.79565 0.732422 5.02311 0.732422ZM5.02311 7.50198C3.8392 7.50198 2.88223 6.5977 2.88223 5.47897C2.88223 4.36025 3.8392 3.45597 5.02311 3.45597C6.20702 3.45597 7.16398 4.36025 7.16398 5.47897C7.16398 6.5977 6.20702 7.50198 5.02311 7.50198Z" fill="#61D18A"/>
<path d="M28.6676 11.8652C25.8951 11.8652 23.6445 13.9883 23.6445 16.6118C23.6445 19.2352 25.8913 21.3583 28.6676 21.3583C31.444 21.3583 33.6907 19.2352 33.6907 16.6118C33.6907 13.9883 31.4402 11.8652 28.6676 11.8652ZM28.6676 18.6348C27.4837 18.6348 26.5268 17.7305 26.5268 16.6118C26.5268 15.493 27.4837 14.5888 28.6676 14.5888C29.8516 14.5888 30.8085 15.493 30.8085 16.6118C30.8085 17.7269 29.8516 18.6348 28.6676 18.6348Z" fill="#61D18A"/>
<path d="M87.2993 17.5397C86.9476 18.1974 86.2251 18.6513 85.3892 18.6513C84.2053 18.6513 83.2483 17.747 83.2483 16.6283C83.2483 15.5096 84.2053 14.6053 85.3892 14.6053C86.2251 14.6053 86.9438 15.0556 87.2993 15.7169H89.9924C89.5991 13.6009 87.8289 12.2177 85.393 12.2177C82.6204 12.2177 80.646 13.9941 80.646 16.614C80.646 19.2339 82.7982 21.0103 85.5708 21.0103C88.0067 21.0103 89.6407 19.6521 90 17.5433H87.2993V17.5397Z" fill="#61D18A"/>
</svg>
