<svg width="22" height="18" viewBox="0 0 22 18" fill="none" xmlns="http://www.w3.org/2000/svg">
<path d="M21.9022 2.1623C21.1905 2.46628 20.4423 2.67796 19.6762 2.7921C20.0344 2.73115 20.5614 2.09119 20.7713 1.83216C21.09 1.44144 21.3329 0.995394 21.4877 0.516691C21.4877 0.481137 21.5235 0.430347 21.4877 0.404952C21.4696 0.395172 21.4494 0.390047 21.4288 0.390047C21.4082 0.390047 21.388 0.395172 21.37 0.404952C20.538 0.852121 19.6526 1.19341 18.7346 1.42076C18.7026 1.43046 18.6686 1.43133 18.6361 1.42328C18.6037 1.41522 18.574 1.39855 18.5504 1.37505C18.4789 1.2906 18.402 1.21086 18.3201 1.13633C17.9457 0.803376 17.5209 0.530865 17.0613 0.328767C16.4409 0.076124 15.7707 -0.0332899 15.1014 0.00878773C14.452 0.049495 13.818 0.22238 13.2388 0.516691C12.6684 0.82698 12.1671 1.24852 11.765 1.75597C11.3421 2.27828 11.0367 2.88442 10.8695 3.53363C10.7316 4.15117 10.716 4.78942 10.8234 5.41287C10.8234 5.51953 10.8234 5.53477 10.7313 5.51953C7.08279 4.98624 4.08923 3.70124 1.64322 0.943329C1.53576 0.821432 1.47947 0.821432 1.39248 0.943329C0.328101 2.5483 0.844936 5.08782 2.1754 6.34234C2.35451 6.50994 2.53872 6.67247 2.73318 6.82484C2.12317 6.78186 1.52805 6.61778 0.9831 6.34234C0.880756 6.27631 0.824467 6.31186 0.81935 6.43376C0.804844 6.60275 0.804844 6.77267 0.81935 6.94166C0.926123 7.75156 1.2477 8.51878 1.75119 9.16487C2.25468 9.81096 2.92202 10.3127 3.68497 10.6189C3.87096 10.6979 4.06476 10.7575 4.26322 10.7966C3.6985 10.907 3.11931 10.9242 2.54896 10.8474C2.42615 10.822 2.38009 10.8881 2.42615 11.0049C3.17837 13.0365 4.81075 13.6561 6.00818 14.0015C6.17193 14.0269 6.33568 14.0269 6.51989 14.0675C6.51989 14.0675 6.51989 14.0675 6.48919 14.098C6.13611 14.738 4.70841 15.1697 4.05341 15.3932C2.85787 15.8194 1.5832 15.9823 0.317866 15.8706C0.118296 15.8401 0.0722413 15.8452 0.0210695 15.8706C-0.0301024 15.896 0.0210695 15.9519 0.0773585 16.0027C0.333218 16.1703 0.589077 16.3176 0.855171 16.4598C1.64733 16.8886 2.48481 17.2293 3.35236 17.4756C7.84525 18.7047 12.901 17.8006 16.2732 14.4739C18.924 11.8632 19.8553 8.26221 19.8553 4.6561C19.8553 4.51897 20.0241 4.4377 20.1214 4.36659C20.792 3.84797 21.3832 3.23549 21.8766 2.5483C21.962 2.44587 22.0058 2.31544 21.9994 2.18261C21.9994 2.10643 21.9994 2.12166 21.9022 2.1623Z" fill="#61D18A"/>
</svg>
