<svg width="21" height="21" viewBox="0 0 21 21" fill="none" xmlns="http://www.w3.org/2000/svg">
<path d="M17.893 17.8934H14.7815V13.0204C14.7815 11.8584 14.7607 10.3626 13.1631 10.3626C11.5425 10.3626 11.2946 11.6286 11.2946 12.9358V17.8931H8.18302V7.87228H11.1701V9.24173H11.2119C11.5109 8.73059 11.9428 8.31011 12.4618 8.02505C12.9808 7.74 13.5674 7.60106 14.1592 7.62303C17.3128 7.62303 17.8943 9.69746 17.8943 12.3962L17.893 17.8934ZM4.67217 6.50251C4.31505 6.50257 3.96591 6.39673 3.66893 6.19837C3.37196 6.00001 3.14049 5.71803 3.00376 5.3881C2.86704 5.05817 2.8312 4.69511 2.90081 4.34482C2.97042 3.99453 3.14234 3.67275 3.39483 3.42017C3.64731 3.16759 3.96902 2.99555 4.31927 2.92581C4.66952 2.85607 5.03258 2.89177 5.36255 3.02838C5.69252 3.16499 5.97456 3.39639 6.17303 3.6933C6.37149 3.99022 6.47746 4.33932 6.47752 4.69646C6.47756 4.93359 6.43089 5.16841 6.34019 5.3875C6.24948 5.6066 6.11653 5.80569 5.94889 5.97339C5.78125 6.1411 5.5822 6.27414 5.36314 6.36493C5.14408 6.45572 4.9093 6.50247 4.67217 6.50251ZM6.22794 17.8934H3.11316V7.87228H6.22794V17.8934ZM19.4442 0.00143076H1.54962C1.14346 -0.00315287 0.752078 0.153706 0.46151 0.437537C0.170942 0.721369 0.00495693 1.10895 0 1.51512V19.4846C0.00478727 19.8909 0.170675 20.2788 0.461233 20.5629C0.751791 20.847 1.14326 21.0042 1.54962 20.9999H19.4442C19.8514 21.005 20.244 20.8483 20.5357 20.5641C20.8274 20.28 20.9944 19.8917 21 19.4846V1.51382C20.9942 1.10685 20.8271 0.718826 20.5354 0.435001C20.2436 0.151176 19.8512 -0.00523375 19.4442 0.000133719" fill="#61D18A"/>
</svg>
